<?xml version="1.0" standalone="no"?>
<!DOCTYPE svg PUBLIC "-//W3C//DTD SVG 20010904//EN"
 "http://www.w3.org/TR/2001/REC-SVG-20010904/DTD/svg10.dtd">
<svg version="1.0" xmlns="http://www.w3.org/2000/svg"
 width="1024.000000pt" height="1024.000000pt" viewBox="0 0 1024.000000 1024.000000"
 preserveAspectRatio="xMidYMid meet">

<g transform="translate(0.000000,1024.000000) scale(0.100000,-0.100000)"
fill="#000000" stroke="none">
<path d="M4615 8416 c-25 -25 -27 -32 -68 -211 -91 -392 -92 -394 -170 -431
-29 -13 -57 -24 -62 -24 -35 0 -351 -118 -445 -165 -25 -13 -73 -44 -108 -69
-79 -58 -99 -66 -171 -66 -65 0 -41 -15 -262 165 -146 117 -209 155 -264 155
-38 0 -46 -7 -333 -296 -173 -174 -300 -310 -308 -330 -35 -85 -5 -150 187
-394 37 -47 74 -99 83 -117 25 -49 20 -101 -14 -163 -75 -135 -125 -250 -200
-454 -43 -120 -87 -226 -98 -236 -33 -31 -55 -38 -262 -80 -230 -48 -304 -71
-322 -103 -19 -33 -18 -889 0 -934 21 -50 100 -74 381 -118 85 -14 164 -31
177 -40 38 -25 52 -54 79 -170 31 -130 97 -303 168 -435 111 -209 109 -203
102 -240 -10 -54 -49 -118 -163 -268 -110 -146 -142 -198 -142 -233 0 -56 47
-111 338 -402 327 -326 313 -316 397 -278 22 10 101 67 175 128 74 60 162 128
194 151 91 65 118 60 286 -54 123 -82 256 -144 449 -209 94 -31 182 -65 196
-77 43 -33 47 -47 100 -298 19 -89 49 -215 61 -258 24 -84 9 -82 529 -82 498
0 504 1 524 62 11 33 42 187 61 303 34 204 49 249 94 279 15 9 86 35 158 57
163 50 298 112 446 204 172 108 192 117 234 112 41 -5 119 -57 318 -212 69
-54 140 -104 159 -112 74 -32 81 -27 384 278 270 272 337 350 337 395 0 30
-23 82 -59 131 -115 158 -231 337 -240 369 -11 38 -8 45 89 239 96 194 164
370 190 497 6 31 20 68 31 82 24 30 49 38 239 70 178 31 305 67 334 95 21 21
21 24 21 485 l0 464 -23 25 c-13 14 -36 27 -50 30 -142 24 -424 80 -449 88
-56 18 -80 53 -119 178 -54 172 -106 298 -195 467 -54 103 -79 162 -79 185 0
36 32 95 101 189 104 143 197 290 203 324 13 67 -16 104 -306 398 -150 152
-283 281 -295 287 -37 19 -115 13 -160 -11 -48 -27 -229 -167 -321 -250 -52
-47 -71 -58 -98 -58 -47 0 -94 21 -171 76 -105 75 -320 168 -557 240 -108 33
-141 59 -161 127 -13 43 -75 316 -104 457 -10 46 -26 76 -53 94 -20 14 -84 16
-496 16 l-473 0 -24 -24z m620 -1400 c285 -38 540 -234 665 -510 81 -178 89
-440 21 -614 -56 -141 -121 -237 -228 -336 -70 -64 -198 -145 -278 -175 -202
-76 -466 -64 -660 29 -208 101 -368 286 -447 520 -31 90 -33 103 -32 240 0
120 4 159 22 223 67 234 233 435 446 542 103 51 180 74 281 82 39 3 72 7 74 9
7 6 29 4 136 -10z m555 -1751 c0 -2 -9 -3 -19 -2 -11 0 -18 5 -15 9 4 6 34 0
34 -7z m-71 -266 c350 -64 615 -254 710 -509 48 -130 51 -164 50 -592 -1 -316
-4 -409 -15 -429 -34 -67 -301 -241 -499 -327 -173 -74 -416 -138 -590 -155
-157 -15 -437 -13 -537 3 -40 6 -86 14 -103 16 -95 15 -273 61 -355 91 -203
75 -444 214 -565 324 l-55 51 0 427 c0 465 3 489 63 623 115 257 424 454 763
487 49 4 298 9 554 10 432 1 474 -1 579 -20z"/>
</g>
</svg>
